<?xml version="1.0" encoding="UTF-8"?> <svg xmlns="http://www.w3.org/2000/svg" width="189" height="60" fill="none"><path d="M98.72 51.028h-2.592l-.525 1.528h-1.097l2.487-6.838h.861l2.487 6.838h-1.093l-.528-1.528zm-.297-.918-.991-2.987h-.02l-.988 2.987h2zM103.376 45.722h2.669c.569 0 1.032.15 1.394.45.435.342.662.83.679 1.46-.013.93-.456 1.56-1.325 1.893l1.585 3.035h-1.236l-1.409-2.922h-1.325v2.922h-1.036v-6.838h.004zm1.036 2.994h1.568c.386-.008.679-.118.874-.337.191-.203.284-.455.284-.752-.008-.357-.122-.613-.341-.772-.175-.142-.427-.211-.76-.211h-1.621v2.072h-.004zM109.881 50.496c0 .39.114.686.337.89.207.207.484.308.825.308.398 0 .752-.158 1.064-.475l.707.605c-.495.532-1.08.793-1.755.788-.256 0-.508-.036-.752-.113a1.891 1.891 0 0 1-.357-.163 1.855 1.855 0 0 1-.341-.22c-.208-.182-.374-.434-.5-.759-.142-.313-.211-.72-.211-1.219 0-.48.061-.882.182-1.198a2.13 2.13 0 0 1 .468-.768c.195-.191.41-.33.65-.415a2.07 2.07 0 0 1 2.113.423c.39.365.589.87.597 1.511v.805h-3.027zm2.056-.809c-.012-.378-.114-.662-.305-.857a.99.99 0 0 0-.723-.276.994.994 0 0 0-.723.276c-.183.195-.285.48-.305.857h2.056zM116.5 52.125h-.021a.798.798 0 0 1-.422.366c-.187.08-.447.121-.78.121-.545-.008-.963-.15-1.256-.43a1.35 1.35 0 0 1-.463-1.057c0-.41.134-.747.402-1.015.268-.277.662-.415 1.182-.423h1.358v-.512c.008-.426-.326-.638-1-.621-.244 0-.435.024-.577.073a.691.691 0 0 0-.345.3l-.768-.585c.374-.487.922-.723 1.645-.71.614-.009 1.101.109 1.467.345.366.243.553.662.557 1.255v3.324h-.979v-.431zm0-1.63h-1.175c-.568.013-.849.208-.845.586 0 .166.073.304.22.422.142.13.373.191.698.191.411.008.699-.04.866-.146.154-.102.231-.337.231-.703v-.35h.005zM118.746 45.722h.98V51.3c0 .224.121.333.365.333h.337v.923h-.434c-.358 0-.65-.09-.882-.269-.244-.182-.366-.487-.366-.914v-5.651zM121.31 45.722h2.475c.268 0 .528.024.78.073.252.065.503.199.759.402.216.154.39.374.525.658.142.276.211.602.211.975 0 .508-.179.967-.532 1.382-.366.438-.902.662-1.605.674h-1.577v2.67h-1.036v-6.834zm1.036 3.19h1.532c.386-.01.674-.127.865-.358.183-.224.277-.476.277-.752 0-.228-.037-.419-.114-.577a.838.838 0 0 0-.329-.333 1.282 1.282 0 0 0-.74-.191h-1.495v2.21h.004zM129.229 52.125h-.02a.804.804 0 0 1-.423.366c-.187.08-.447.121-.78.121-.544-.008-.963-.15-1.255-.43a1.35 1.35 0 0 1-.464-1.057c0-.41.134-.747.403-1.015.268-.277.662-.415 1.182-.423h1.357v-.512c.008-.426-.325-.638-1-.621-.243 0-.434.024-.576.073a.69.69 0 0 0-.346.3l-.768-.585c.374-.487.923-.723 1.646-.71.613-.009 1.101.109 1.467.345.365.243.552.662.556 1.255v3.324h-.979v-.431zm0-1.63h-1.174c-.569.013-.849.208-.845.586 0 .166.073.304.219.422.142.13.374.191.699.191.41.008.699-.04.865-.146.155-.102.232-.337.232-.703v-.35h.004zM134.214 52.048c-.321.365-.739.556-1.255.569-.317-.009-.577-.074-.788-.204a1.66 1.66 0 0 1-.5-.394 1.437 1.437 0 0 1-.276-.585c-.061-.227-.09-.662-.09-1.304 0-.654.029-1.097.09-1.329.056-.227.15-.418.276-.577.118-.154.284-.292.5-.414.211-.114.471-.175.788-.183.483 0 .902.191 1.255.577v-.516h.979v4.754c-.012.731-.223 1.267-.633 1.613-.415.353-.906.528-1.483.528-.659-.012-1.223-.284-1.686-.817l.759-.605c.126.114.268.215.431.297.167.089.337.138.516.146.333 0 .601-.094.804-.276.2-.187.305-.447.309-.78v-.5h.004zm-1.934-1.918c0 .374.012.63.037.768.02.146.073.268.154.365a.89.89 0 0 0 .301.24c.13.09.288.13.479.13s.35-.044.48-.13a.932.932 0 0 0 .292-.24.794.794 0 0 0 .163-.365c.02-.142.028-.398.028-.768 0-.378-.008-.642-.028-.788a.745.745 0 0 0-.163-.358 1.028 1.028 0 0 0-.292-.256 1.058 1.058 0 0 0-.48-.118 1.054 1.054 0 0 0-.479.118 1.16 1.16 0 0 0-.301.256.656.656 0 0 0-.154.358c-.025.146-.037.41-.037.788zM137.201 50.496c0 .39.113.686.337.89.207.207.483.308.825.308.398 0 .751-.158 1.064-.475l.707.605c-.495.532-1.081.793-1.755.788-.256 0-.508-.036-.752-.113a1.863 1.863 0 0 1-.357-.163 1.897 1.897 0 0 1-.342-.22c-.207-.182-.373-.434-.499-.759-.142-.313-.212-.72-.212-1.219 0-.48.061-.882.183-1.198a2.13 2.13 0 0 1 .468-.768c.195-.191.41-.33.65-.415a2.07 2.07 0 0 1 2.112.423c.39.365.59.87.598 1.511v.805h-3.027zm2.056-.809c-.013-.378-.114-.662-.305-.857a.99.99 0 0 0-.723-.276.991.991 0 0 0-.724.276c-.182.195-.284.48-.304.857h2.056zM148.264 50.646c-.15.634-.434 1.121-.857 1.463-.435.337-.951.508-1.544.508-.536-.013-.987-.143-1.345-.395-.366-.24-.63-.52-.796-.833-.049-.101-.094-.203-.138-.296a1.988 1.988 0 0 1-.094-.366c-.045-.276-.069-.804-.069-1.584 0-.793.024-1.325.069-1.593.049-.268.126-.488.232-.65.166-.317.43-.597.796-.845.362-.252.809-.378 1.345-.386.658.008 1.199.203 1.613.585.414.386.679.87.788 1.438h-1.097a1.492 1.492 0 0 0-.459-.703 1.349 1.349 0 0 0-.845-.284 1.428 1.428 0 0 0-.63.146 1.273 1.273 0 0 0-.43.354 1.14 1.14 0 0 0-.269.568c-.048.244-.073.703-.073 1.374 0 .67.025 1.125.073 1.365.045.236.134.43.269.577.109.142.251.256.43.341.175.102.386.154.63.154.581 0 1.016-.312 1.304-.934h1.097v-.004zM148.667 50.122c0-.512.04-.906.125-1.182a1.75 1.75 0 0 1 .403-.679c.134-.163.321-.309.56-.435.236-.122.541-.187.915-.19.386.007.694.068.934.19.236.13.414.272.545.435.195.183.333.41.414.678.077.277.118.67.118 1.183 0 .512-.041.902-.118 1.174-.081.268-.219.5-.414.699a1.336 1.336 0 0 1-.232.211 1.122 1.122 0 0 1-.313.203c-.236.134-.548.203-.934.212-.374-.009-.679-.078-.915-.212a1.834 1.834 0 0 1-.963-1.113c-.085-.272-.125-.662-.125-1.174zm3.031.008c0-.345-.017-.601-.045-.76a.893.893 0 0 0-.191-.402.716.716 0 0 0-.317-.256 1.067 1.067 0 0 0-.467-.098c-.167 0-.317.033-.459.098a.901.901 0 0 0-.33.256 1.099 1.099 0 0 0-.182.402c-.037.159-.057.41-.057.752 0 .337.02.585.057.74.036.158.097.3.182.422.086.093.195.175.33.248.142.069.292.101.459.101.178 0 .333-.032.467-.101a.89.89 0 0 0 .317-.248.945.945 0 0 0 .191-.423c.032-.158.045-.402.045-.731zM153.761 47.692h.98v.516h.02c.321-.386.744-.577 1.272-.577.337.008.609.065.816.175.204.122.39.276.557.463.382-.43.894-.646 1.532-.638.402 0 .772.142 1.105.427.333.288.504.71.516 1.267v3.235h-.979v-2.897c0-.342-.09-.602-.268-.78-.179-.183-.407-.273-.691-.273a.934.934 0 0 0-.695.273c-.183.178-.276.438-.276.78v2.897h-.979v-2.897c0-.342-.09-.602-.269-.78a.938.938 0 0 0-.694-.273.924.924 0 0 0-.691.273c-.187.178-.28.438-.28.78v2.897h-.98v-4.868h.004zM161.888 47.692h.979v.508c.325-.362.743-.553 1.255-.569.597.016 1.032.228 1.309.638.134.154.227.354.276.605.049.248.069.667.069 1.256 0 .577-.025.987-.069 1.24a1.32 1.32 0 0 1-.276.613 1.474 1.474 0 0 1-.529.45 1.75 1.75 0 0 1-.78.184c-.252 0-.475-.053-.67-.163a2.119 2.119 0 0 1-.585-.414v2.49h-.979v-6.838zm1.942 3.941c.231 0 .414-.044.548-.13a.756.756 0 0 0 .285-.345c.061-.146.105-.309.126-.488.008-.174.008-.353.008-.54 0-.195-.004-.382-.008-.569a1.735 1.735 0 0 0-.126-.487.682.682 0 0 0-.285-.346c-.134-.077-.317-.118-.548-.118-.22 0-.394.045-.52.135a.821.821 0 0 0-.297.357 1.788 1.788 0 0 0-.118.48 5.04 5.04 0 0 0 0 1.064c.021.183.057.345.118.492a.817.817 0 0 0 .297.357c.126.094.3.138.52.138zM169.429 52.125h-.021a.798.798 0 0 1-.422.366c-.187.08-.447.121-.78.121-.545-.008-.963-.15-1.256-.43a1.35 1.35 0 0 1-.463-1.057c0-.41.134-.747.402-1.015.268-.277.662-.415 1.182-.423h1.358v-.512c.008-.426-.325-.638-1-.621-.244 0-.435.024-.577.073a.691.691 0 0 0-.345.3l-.768-.585c.374-.487.922-.723 1.645-.71.614-.009 1.101.109 1.467.345.366.243.553.662.557 1.255v3.324h-.979v-.431zm0-1.63h-1.175c-.569.013-.849.208-.845.586 0 .166.073.304.22.422.142.13.373.191.698.191.411.008.699-.04.866-.146.154-.102.231-.337.231-.703v-.35h.005zM171.675 47.692h.98v.516h.02c.321-.386.743-.577 1.268-.577.402 0 .772.142 1.105.427.333.288.504.71.52 1.267v3.235h-.979v-2.897c0-.342-.09-.602-.273-.78-.178-.183-.406-.273-.69-.273a.934.934 0 0 0-.695.273c-.183.178-.276.438-.276.78v2.897h-.98v-4.868zM176.132 47.692h1.037l1.153 3.409h.021l1.15-3.409h1.04l-2.097 5.875c-.134.366-.321.618-.556.76-.24.134-.512.203-.817.203h-.325v-.922h.284c.13 0 .248-.033.358-.102a.576.576 0 0 0 .231-.317l.269-.816-1.748-4.68z" fill="#727274"></path><path d="M183.272 24.972c0-.458.114-.887.345-1.288a2.54 2.54 0 0 1 .943-.947 2.56 2.56 0 0 1 1.296-.349c.459 0 .887.114 1.288.345.402.227.716.545.947.943.232.402.349.834.349 1.296 0 .45-.11.875-.333 1.27a2.54 2.54 0 0 1-.936.95 2.522 2.522 0 0 1-1.315.356c-.474 0-.909-.117-1.311-.356a2.54 2.54 0 0 1-.936-.95 2.501 2.501 0 0 1-.337-1.27zm.485 0a2.09 2.09 0 0 0 2.095 2.095 2.086 2.086 0 0 0 1.815-1.05c.186-.325.28-.674.28-1.045a2.08 2.08 0 0 0-1.049-1.815 2.08 2.08 0 0 0-1.046-.28 2.082 2.082 0 0 0-1.815 1.05c-.185.325-.28.674-.28 1.045zm3.145-.599c0 .39-.163.656-.493.8l.815 1.375h-.872l-.613-1.163h-.163v1.16h-.788V23.4h.905c.413 0 .72.08.913.238.197.163.296.41.296.735zm-1.323.436h.107c.151 0 .257-.034.325-.098.065-.065.099-.175.099-.326 0-.148-.03-.254-.095-.315-.064-.06-.174-.09-.333-.09h-.099v.83h-.004zM112.74 25.753h-2.747v13.65h2.747v-13.65zM111.736 20.153h-.743c-.599 0-1.084.48-1.084 1.083v.743c0 .599.482 1.084 1.084 1.084h.743a1.08 1.08 0 0 0 1.083-1.084v-.743a1.08 1.08 0 0 0-1.083-1.083zM87.832 29.549c1.292-.512 2.584-1.993 2.584-4.066 0-3.231-2.235-5.25-5.79-5.25H77.17v18.083c0 .599.485 1.088 1.08 1.088h6.676c3.391 0 5.79-1.883 5.79-5.41 0-2.426-1.402-3.85-2.884-4.445zm-7.752-6.703h4.308c1.857 0 3.122.97 3.122 2.747s-1.265 2.747-3.122 2.747H80.08v-5.494zm4.577 13.947H80.08v-5.842h4.577c2.02 0 3.148 1.212 3.148 2.906 0 1.693-1.129 2.936-3.148 2.936zM102.885 34.073c0 2.099-1.292 3.042-2.826 3.042-1.535 0-2.747-.917-2.747-3.042v-8.32h-2.747v8.725c0 1.535.322 2.827 1.371 3.85.807.78 1.967 1.238 3.365 1.238 1.371 0 2.694-.511 3.633-1.534v1.372h2.694V25.752h-2.747v8.32h.004zM154.64 34.073c0 2.099-1.292 3.042-2.826 3.042-1.535 0-2.747-.917-2.747-3.042v-8.32h-2.747v8.725c0 1.535.322 2.827 1.371 3.85.807.78 1.967 1.238 3.365 1.238 1.371 0 2.694-.511 3.633-1.534v1.372h2.694V25.752h-2.747v8.32h.004zM179.68 26.832c-.807-.78-2.046-1.239-3.448-1.239-1.803 0-3.178.648-4.281 1.993-.86-1.318-2.182-1.993-3.876-1.993-1.371 0-2.72.538-3.633 1.535v-1.372h-2.694v13.648h2.747v-8.32c0-2.1 1.292-3.043 2.826-3.043 1.535 0 2.747.917 2.747 3.042v8.32h2.747v-8.452c0-1.967 1.345-2.906 2.826-2.906 1.535 0 2.747.917 2.747 3.042v8.317h1.66c.598 0 1.083-.482 1.083-1.069v-7.653c0-1.535-.401-2.827-1.451-3.85zM141.091 20.153h-.742c-.599 0-1.084.48-1.084 1.083v.743c0 .599.481 1.084 1.084 1.084h.742c.599 0 1.084-.482 1.084-1.084v-.743a1.08 1.08 0 0 0-1.084-1.083zM132.241 27.128c-.997-1.186-2.126-1.535-3.581-1.535-1.371 0-2.557.459-3.311 1.213-1.372 1.371-1.535 3.69-1.535 5.763 0 2.072.163 4.413 1.535 5.789.754.754 1.966 1.212 3.338 1.212 1.481 0 2.584-.375 3.607-1.614v1.448h2.694V20.232h-2.747v6.896zm-2.831 9.987c-2.477 0-2.853-2.125-2.853-4.55s.379-4.524 2.853-4.524 2.827 2.099 2.827 4.524-.349 4.55-2.827 4.55zM142.095 25.753h-2.747v13.65h2.747v-13.65zM121.374 37.062h-.128c-1.103 0-1.482-.538-1.482-1.587V20.236h-2.747v15.402c0 2.019 1.129 3.77 3.744 3.77h.613c.599 0 1.084-.474 1.084-1.077v-.193c0-.595-.493-1.076-1.084-1.076zM60 0H0v60h60V0z" fill="#70B37F"></path><path d="m42.73 9.832-10.92 2.61c-.677.17-1.602.732-2.038 1.258L17.27 29.416h4.206v15.735c0 .694.526 1.429 1.208 1.633l9.958 3.024V29.416h-5.392L42.73 9.832z" fill="#fff"></path></svg> 